<svg id="Icons" viewBox="0 0 60 60" xmlns="http://www.w3.org/2000/svg"><path d="m13.31 33.27c1.53 7.82 8.42 13.73 16.69 13.73s15.16-5.91 16.69-13.73z" fill="#ed7c5d"/><path d="m18.58 33.67c1.54 4.83 6.07 8.33 11.42 8.33s9.88-3.5 11.42-8.33z" fill="#493239"/><path d="m44.868 21.751c1.719 3.088 4.755 5.2 8.232 5.83 3.703.672 5.9 1.512 5.9 2.419 0 1.35-4.86 2.55-12.31 3.27-4.72.46-10.47.73-16.69.73s-11.97-.27-16.69-.73c-7.45-.72-12.31-1.92-12.31-3.27 0-.908 2.197-1.747 5.9-2.419 3.477-.631 6.513-2.743 8.232-5.83 2.905-5.217 8.474-8.751 14.868-8.751s11.964 3.533 14.868 8.751z" fill="#f99062"/><path d="m41.736 27.507c.238 1.125-.615 2.188-1.764 2.246-3.155.159-6.52.247-9.972.247s-6.818-.088-9.972-.247c-1.149-.058-2.001-1.12-1.764-2.246 1.146-5.431 5.961-9.507 11.736-9.507s10.59 4.077 11.736 9.507z" fill="#493239"/></svg>