<?xml version="1.0" encoding="UTF-8"?>
<svg id="Icons" xmlns="http://www.w3.org/2000/svg" xmlns:xlink="http://www.w3.org/1999/xlink" viewBox="0 0 48 35">
  <defs>
    <style>
      .cls-1 {
        fill: url(#Gradiente_sem_nome_9);
      }

      .cls-2 {
        fill: url(#Gradiente_sem_nome_73);
      }

      .cls-3 {
        fill: url(#Gradiente_sem_nome_34);
      }

      .cls-4 {
        fill: url(#Gradiente_sem_nome_60);
      }
    </style>
    <linearGradient id="Gradiente_sem_nome_60" data-name="Gradiente sem nome 60" x1="17.78" y1="74.49" x2="-8.11" y2="57.34" gradientTransform="translate(53.7 -35.91) rotate(35.34)" gradientUnits="userSpaceOnUse">
      <stop offset="0" stop-color="#fef7af"/>
      <stop offset="1" stop-color="#fafafa"/>
    </linearGradient>
    <linearGradient id="Gradiente_sem_nome_73" data-name="Gradiente sem nome 73" x1="20.86" y1="69.85" x2="-5.03" y2="52.69" gradientTransform="translate(53.7 -35.91) rotate(35.34)" gradientUnits="userSpaceOnUse">
      <stop offset="0" stop-color="#fef7af"/>
      <stop offset="1" stop-color="#fafafa"/>
    </linearGradient>
    <linearGradient id="Gradiente_sem_nome_34" data-name="Gradiente sem nome 34" x1="12.13" y1="47.73" x2=".65" y2="79.89" gradientTransform="translate(53.7 -35.91) rotate(35.34)" gradientUnits="userSpaceOnUse">
      <stop offset="0" stop-color="#18181b"/>
      <stop offset="1" stop-color="#09090b"/>
    </linearGradient>
    <linearGradient id="Gradiente_sem_nome_9" data-name="Gradiente sem nome 9" x1="10.25" y1="47.06" x2="-1.23" y2="79.22" gradientTransform="translate(53.7 -35.91) rotate(35.34)" gradientUnits="userSpaceOnUse">
      <stop offset="0" stop-color="#18181b"/>
      <stop offset="1" stop-color="#09090b"/>
    </linearGradient>
  </defs>
  <g>
    <path class="cls-4" d="M8.26,10.11c-3.28,7.26-1.07,16.07,5.67,20.85s15.79,3.95,21.56-1.55L8.26,10.11Z"/>
    <path class="cls-2" d="M40.67,18.96c-.38,3.51.87,6.99,3.34,9.52,2.63,2.69,3.94,4.65,3.41,5.39-.78,1.1-5.44-.73-11.93-4.45-4.12-2.35-8.96-5.46-14.04-9.06-5.07-3.6-9.61-7.14-13.19-10.25C2.6,5.21-.67,1.42.11.32.64-.42,2.92.16,6.33,1.76c3.2,1.5,6.9,1.53,10.09,0,5.39-2.58,11.97-2.24,17.19,1.46s7.72,9.8,7.07,15.74Z"/>
  </g>
  <g>
    <path class="cls-3" d="M12.33,13.48c-1.54,4.83.13,10.31,4.5,13.4s10.08,2.86,14.13-.19L12.33,13.48Z"/>
    <path class="cls-1" d="M34.79,21.85c-.46,1.06-1.77,1.43-2.74.81-2.67-1.7-5.46-3.57-8.28-5.57s-5.51-4.02-7.99-5.97c-.9-.71-.98-2.07-.14-2.85,4.08-3.77,10.36-4.31,15.07-.97,4.71,3.34,6.28,9.45,4.07,14.54Z"/>
  </g>
</svg>