<?xml version="1.0" encoding="UTF-8"?>
<svg id="Icons" xmlns="http://www.w3.org/2000/svg" version="1.1" xmlns:xlink="http://www.w3.org/1999/xlink" viewBox="0 47.76 106.18 29">
  <!-- Generator: Adobe Illustrator 30.5.1, SVG Export Plug-In . SVG Version: 2.1.4 Build 3)  -->
  <defs>
    <style>
      .st0 {
        fill: url(#Gradiente_sem_nome_602);
      }

      .st1 {
        fill: url(#Gradiente_sem_nome_9);
      }

      .st2 {
        fill: url(#Gradiente_sem_nome_341);
      }

      .st3 {
        fill: url(#Gradiente_sem_nome_732);
      }

      .st4 {
        fill: url(#Gradiente_sem_nome_601);
      }

      .st5 {
        fill: url(#Gradiente_sem_nome_345);
      }

      .st6 {
        fill: url(#Gradiente_sem_nome_342);
      }

      .st7 {
        fill: url(#Gradiente_sem_nome_344);
      }

      .st8 {
        fill: url(#Gradiente_sem_nome_73);
      }

      .st9 {
        fill: url(#Gradiente_sem_nome_34);
      }

      .st10 {
        fill: url(#Gradiente_sem_nome_731);
      }

      .st11 {
        fill: url(#Gradiente_sem_nome_346);
      }

      .st12 {
        fill: url(#Gradiente_sem_nome_60);
      }

      .st13 {
        fill: url(#Gradiente_sem_nome_343);
      }

      .st14 {
        display: none;
      }

      .st15 {
        fill: url(#Gradiente_sem_nome_734);
      }

      .st16 {
        fill: url(#Gradiente_sem_nome_733);
      }
    </style>
    <linearGradient id="Gradiente_sem_nome_34" data-name="Gradiente sem nome 34" x1="6.47" y1="76.39" x2="39.92" y2="59.04" gradientUnits="userSpaceOnUse">
      <stop offset="0" stop-color="#18181b"/>
      <stop offset="1" stop-color="#09090b"/>
    </linearGradient>
    <linearGradient id="Gradiente_sem_nome_341" data-name="Gradiente sem nome 34" x1="5.62" y1="74.76" x2="39.08" y2="57.41" xlink:href="#Gradiente_sem_nome_34"/>
    <linearGradient id="Gradiente_sem_nome_60" data-name="Gradiente sem nome 60" x1="27.55" y1="47.87" x2="16.07" y2="80.02" gradientTransform="translate(41.2 3.32) rotate(35.34)" gradientUnits="userSpaceOnUse">
      <stop offset="0" stop-color="#fef7af"/>
      <stop offset="1" stop-color="#fafafa"/>
    </linearGradient>
    <linearGradient id="Gradiente_sem_nome_601" data-name="Gradiente sem nome 60" x1="25.67" y1="47.2" x2="14.19" y2="79.35" xlink:href="#Gradiente_sem_nome_60"/>
    <linearGradient id="Gradiente_sem_nome_342" data-name="Gradiente sem nome 34" x1="109.21" y1="48.49" x2="49.47" y2="66.49" xlink:href="#Gradiente_sem_nome_34"/>
    <linearGradient id="Gradiente_sem_nome_343" data-name="Gradiente sem nome 34" x1="111.81" y1="57.11" x2="52.07" y2="75.11" xlink:href="#Gradiente_sem_nome_34"/>
    <linearGradient id="Gradiente_sem_nome_344" data-name="Gradiente sem nome 34" x1="111.83" y1="57.18" x2="52.09" y2="75.18" xlink:href="#Gradiente_sem_nome_34"/>
    <linearGradient id="Gradiente_sem_nome_345" data-name="Gradiente sem nome 34" x1="113.22" y1="61.79" x2="53.48" y2="79.79" xlink:href="#Gradiente_sem_nome_34"/>
    <linearGradient id="Gradiente_sem_nome_602" data-name="Gradiente sem nome 60" x1="5.28" y1="35.26" x2="-20.61" y2="18.11" xlink:href="#Gradiente_sem_nome_60"/>
    <linearGradient id="Gradiente_sem_nome_73" data-name="Gradiente sem nome 73" x1="8.36" y1="30.62" x2="-17.53" y2="13.46" gradientTransform="translate(41.2 3.32) rotate(35.34)" gradientUnits="userSpaceOnUse">
      <stop offset="0" stop-color="#fef7af"/>
      <stop offset="1" stop-color="#fafafa"/>
    </linearGradient>
    <linearGradient id="Gradiente_sem_nome_346" data-name="Gradiente sem nome 34" x1="-.37" y1="8.5" x2="-11.85" y2="40.66" gradientTransform="translate(41.2 3.32) rotate(35.34)" xlink:href="#Gradiente_sem_nome_34"/>
    <linearGradient id="Gradiente_sem_nome_9" data-name="Gradiente sem nome 9" x1="-2.25" y1="7.83" x2="-13.72" y2="39.98" gradientTransform="translate(41.2 3.32) rotate(35.34)" gradientUnits="userSpaceOnUse">
      <stop offset="0" stop-color="#18181b"/>
      <stop offset="1" stop-color="#09090b"/>
    </linearGradient>
    <linearGradient id="Gradiente_sem_nome_731" data-name="Gradiente sem nome 73" x1="45.29" y1="16.14" x2="108.16" y2="17.19" gradientTransform="matrix(1,0,0,1,0,0)" xlink:href="#Gradiente_sem_nome_73"/>
    <linearGradient id="Gradiente_sem_nome_732" data-name="Gradiente sem nome 73" x1="45.23" y1="19.27" x2="108.1" y2="20.31" gradientTransform="matrix(1,0,0,1,0,0)" xlink:href="#Gradiente_sem_nome_73"/>
    <linearGradient id="Gradiente_sem_nome_733" data-name="Gradiente sem nome 73" x1="45.3" y1="15.54" x2="108.17" y2="16.59" gradientTransform="matrix(1,0,0,1,0,0)" xlink:href="#Gradiente_sem_nome_73"/>
    <linearGradient id="Gradiente_sem_nome_734" data-name="Gradiente sem nome 73" x1="45.3" y1="15.3" x2="108.17" y2="16.34" gradientTransform="matrix(1,0,0,1,0,0)" xlink:href="#Gradiente_sem_nome_73"/>
  </defs>
  <g>
    <g>
      <g>
        <path class="st9" d="M8.26,58.37c-3.28,7.26-1.07,16.07,5.67,20.85s15.79,3.95,21.56-1.55l-27.23-19.31Z"/>
        <path class="st2" d="M40.67,67.22c-.38,3.51.87,6.99,3.34,9.52,2.63,2.69,3.94,4.65,3.41,5.39-.78,1.1-5.44-.73-11.93-4.45-4.12-2.35-8.96-5.46-14.04-9.06-5.07-3.6-9.61-7.14-13.19-10.25C2.6,53.47-.67,49.68.11,48.58c.53-.74,2.8-.15,6.21,1.44,3.2,1.5,6.9,1.53,10.09,0,5.39-2.58,11.97-2.24,17.19,1.46s7.72,9.8,7.07,15.74Z"/>
      </g>
      <g>
        <path class="st12" d="M12.33,61.74c-1.54,4.83.13,10.31,4.5,13.4s10.08,2.86,14.13-.19l-18.63-13.21Z"/>
        <path class="st4" d="M34.79,70.11c-.46,1.06-1.77,1.43-2.74.81-2.67-1.7-5.46-3.57-8.28-5.57s-5.51-4.02-7.99-5.97c-.9-.71-.98-2.07-.14-2.85,4.08-3.77,10.36-4.31,15.07-.97,4.71,3.34,6.28,9.45,4.07,14.54Z"/>
      </g>
    </g>
    <g>
      <path class="st6" d="M66.86,53.11h3.48l-8.72,23.21h-3.81l-8.69-23.21h3.51l7.09,19.79,7.13-19.79Z"/>
      <path class="st13" d="M75.51,76.55c-1.57,0-2.98-.35-4.23-1.04s-2.23-1.68-2.93-2.95c-.71-1.27-1.06-2.77-1.06-4.49s.36-3.26,1.09-4.54c.73-1.28,1.72-2.27,2.98-2.97s2.67-1.04,4.24-1.04,2.99.35,4.26,1.04c1.27.7,2.27,1.68,3,2.95.73,1.27,1.09,2.77,1.09,4.49s-.37,3.26-1.11,4.54c-.74,1.28-1.75,2.27-3.03,2.97-1.28.7-2.72,1.04-4.31,1.04ZM75.48,73.7c.88,0,1.71-.2,2.49-.61.77-.41,1.41-1.03,1.91-1.87.5-.84.75-1.91.75-3.22s-.24-2.34-.71-3.17c-.48-.83-1.1-1.45-1.87-1.86-.77-.41-1.6-.61-2.49-.61s-1.66.2-2.4.61c-.74.41-1.34,1.03-1.81,1.87-.46.84-.7,1.91-.7,3.22s.23,2.34.68,3.17c.45.83,1.04,1.45,1.77,1.86.73.41,1.53.61,2.39.61Z"/>
      <path class="st7" d="M86.98,56.82c-.6,0-1.09-.2-1.49-.6-.4-.4-.6-.88-.6-1.46s.2-1.1.6-1.51c.4-.41.89-.61,1.49-.61s1.07.2,1.48.61c.41.41.61.91.61,1.51s-.2,1.06-.61,1.46c-.41.4-.9.6-1.48.6ZM85.39,59.74h3.15v16.58h-3.15v-16.58Z"/>
      <path class="st5" d="M103.39,62.56l-.36.1v-10.21h3.15v23.87h-2.85l-.23-2.49c-.55.75-1.3,1.39-2.24,1.92-.94.53-2.08.8-3.43.8-1.5,0-2.81-.35-3.93-1.06-1.12-.71-1.99-1.7-2.62-2.98-.63-1.28-.95-2.77-.95-4.48s.31-3.19.95-4.48c.63-1.28,1.5-2.28,2.62-2.98,1.12-.71,2.42-1.06,3.93-1.06s2.66.29,3.66.88c1,.59,1.77,1.31,2.3,2.17ZM93.28,68.03c0,1.7.44,3.07,1.33,4.11.88,1.04,2.07,1.56,3.55,1.56.91,0,1.72-.22,2.45-.66.73-.44,1.32-1.09,1.76-1.94.44-.85.66-1.87.66-3.07s-.22-2.21-.66-3.05c-.44-.84-1.03-1.49-1.76-1.94s-1.55-.68-2.45-.68c-1.46,0-2.64.52-3.53,1.56-.9,1.04-1.34,2.41-1.34,4.11Z"/>
    </g>
  </g>
  <g class="st14">
    <g>
      <g>
        <path class="st0" d="M8.26,10.11c-3.28,7.26-1.07,16.07,5.67,20.85s15.79,3.95,21.56-1.55L8.26,10.11Z"/>
        <path class="st8" d="M40.67,18.96c-.38,3.51.87,6.99,3.34,9.52,2.63,2.69,3.94,4.65,3.41,5.39-.78,1.1-5.44-.73-11.93-4.45-4.12-2.35-8.96-5.46-14.04-9.06-5.07-3.6-9.61-7.14-13.19-10.25C2.6,5.21-.67,1.42.11.32.64-.42,2.92.16,6.33,1.76c3.2,1.5,6.9,1.53,10.09,0,5.39-2.58,11.97-2.24,17.19,1.46s7.72,9.8,7.07,15.74Z"/>
      </g>
      <g>
        <path class="st11" d="M12.33,13.48c-1.54,4.83.13,10.31,4.5,13.4s10.08,2.86,14.13-.19L12.33,13.48Z"/>
        <path class="st1" d="M34.79,21.85c-.46,1.06-1.77,1.43-2.74.81-2.67-1.7-5.46-3.57-8.28-5.57s-5.51-4.02-7.99-5.97c-.9-.71-.98-2.07-.14-2.85,4.08-3.77,10.36-4.31,15.07-.97,4.71,3.34,6.28,9.45,4.07,14.54Z"/>
      </g>
    </g>
    <g>
      <path class="st10" d="M66.86,4.85h3.48l-8.72,23.21h-3.81l-8.69-23.21h3.51l7.09,19.79,7.13-19.79Z"/>
      <path class="st3" d="M75.51,28.29c-1.57,0-2.98-.35-4.23-1.04s-2.23-1.68-2.93-2.95c-.71-1.27-1.06-2.77-1.06-4.49s.36-3.26,1.09-4.54c.73-1.28,1.72-2.27,2.98-2.97s2.67-1.04,4.24-1.04,2.99.35,4.26,1.04c1.27.7,2.27,1.68,3,2.95.73,1.27,1.09,2.77,1.09,4.49s-.37,3.26-1.11,4.54c-.74,1.28-1.75,2.27-3.03,2.97-1.28.7-2.72,1.04-4.31,1.04ZM75.48,25.44c.88,0,1.71-.2,2.49-.61.77-.41,1.41-1.03,1.91-1.87.5-.84.75-1.91.75-3.22s-.24-2.34-.71-3.17c-.48-.83-1.1-1.45-1.87-1.86-.77-.41-1.6-.61-2.49-.61s-1.66.2-2.4.61c-.74.41-1.34,1.03-1.81,1.87-.46.84-.7,1.91-.7,3.22s.23,2.34.68,3.17c.45.83,1.04,1.45,1.77,1.86.73.41,1.53.61,2.39.61Z"/>
      <path class="st16" d="M86.98,8.56c-.6,0-1.09-.2-1.49-.6-.4-.4-.6-.88-.6-1.46s.2-1.1.6-1.51c.4-.41.89-.61,1.49-.61s1.07.2,1.48.61c.41.41.61.91.61,1.51s-.2,1.06-.61,1.46c-.41.4-.9.6-1.48.6ZM85.39,11.48h3.15v16.58h-3.15V11.48Z"/>
      <path class="st15" d="M103.39,14.3l-.36.1V4.19h3.15v23.87h-2.85l-.23-2.49c-.55.75-1.3,1.39-2.24,1.92-.94.53-2.08.8-3.43.8-1.5,0-2.81-.35-3.93-1.06-1.12-.71-1.99-1.7-2.62-2.98-.63-1.28-.95-2.77-.95-4.48s.31-3.19.95-4.48c.63-1.28,1.5-2.28,2.62-2.98,1.12-.71,2.42-1.06,3.93-1.06s2.66.29,3.66.88c1,.59,1.77,1.31,2.3,2.17ZM93.28,19.77c0,1.7.44,3.07,1.33,4.11.88,1.04,2.07,1.56,3.55,1.56.91,0,1.72-.22,2.45-.66.73-.44,1.32-1.09,1.76-1.94.44-.85.66-1.87.66-3.07s-.22-2.21-.66-3.05c-.44-.84-1.03-1.49-1.76-1.94s-1.55-.68-2.45-.68c-1.46,0-2.64.52-3.53,1.56-.9,1.04-1.34,2.41-1.34,4.11Z"/>
    </g>
  </g>
</svg>